<svg viewBox="0 0 120 120" xmlns="http://www.w3.org/2000/svg" role="img" aria-label="FRESKO logo - tresnja">
  <defs>
    <radialGradient id="cherryL" cx="38%" cy="33%" r="72%">
      <stop offset="0%" stop-color="#ff6b6b"/>
      <stop offset="55%" stop-color="#e63946"/>
      <stop offset="100%" stop-color="#b3001b"/>
    </radialGradient>
    <radialGradient id="cherryR" cx="38%" cy="33%" r="72%">
      <stop offset="0%" stop-color="#ff6b6b"/>
      <stop offset="55%" stop-color="#e63946"/>
      <stop offset="100%" stop-color="#a4001a"/>
    </radialGradient>
    <linearGradient id="leaf" x1="0%" y1="0%" x2="100%" y2="100%">
      <stop offset="0%" stop-color="#7ed957"/>
      <stop offset="100%" stop-color="#2e7d32"/>
    </linearGradient>
  </defs>

  <!-- stems -->
  <path d="M44 64 Q54 38 66 26" fill="none" stroke="#5a3a1a" stroke-width="5" stroke-linecap="round"/>
  <path d="M84 60 Q74 40 66 26" fill="none" stroke="#5a3a1a" stroke-width="5" stroke-linecap="round"/>

  <!-- leaf -->
  <path d="M66 26 C78 6 102 8 104 18 C96 32 74 32 66 26 Z" fill="url(#leaf)"/>
  <path d="M70 24 Q86 20 100 18" fill="none" stroke="#1b5e20" stroke-width="2" stroke-linecap="round" opacity="0.6"/>

  <!-- cherries -->
  <circle cx="42" cy="86" r="24" fill="url(#cherryL)"/>
  <circle cx="84" cy="82" r="22" fill="url(#cherryR)"/>

  <!-- highlights -->
  <ellipse cx="34" cy="78" rx="7" ry="5" fill="#ffffff" opacity="0.45" transform="rotate(-25 34 78)"/>
  <ellipse cx="77" cy="75" rx="6" ry="4" fill="#ffffff" opacity="0.4" transform="rotate(-25 77 75)"/>
</svg>
